<?xml version="1.0" encoding="UTF-8" standalone="no"?>
<!DOCTYPE svg PUBLIC "-//W3C//DTD SVG 1.1//EN" "http://www.w3.org/Graphics/SVG/1.1/DTD/svg11.dtd">
<svg width="100%" height="100%" viewBox="0 0 1373 183" version="1.1" xmlns="http://www.w3.org/2000/svg" xmlns:xlink="http://www.w3.org/1999/xlink" xml:space="preserve" xmlns:serif="http://www.serif.com/" style="fill-rule:evenodd;clip-rule:evenodd;stroke-linejoin:round;stroke-miterlimit:2;">
    <g transform="matrix(1,0,0,1,-26.4083,0)">
        <g transform="matrix(1,0,0,1,-200.235,-118.4)">
            <g transform="matrix(241.667,0,0,241.667,207.31,301.342)">
                <path d="M0.446,-0.675C0.484,-0.675 0.517,-0.67 0.544,-0.659C0.571,-0.648 0.594,-0.633 0.612,-0.615C0.629,-0.596 0.642,-0.575 0.651,-0.55C0.659,-0.525 0.663,-0.5 0.663,-0.473C0.663,-0.452 0.66,-0.431 0.655,-0.41C0.65,-0.389 0.641,-0.369 0.63,-0.351C0.619,-0.332 0.604,-0.316 0.586,-0.302C0.568,-0.288 0.546,-0.277 0.52,-0.27L0.677,-0L0.546,-0L0.392,-0.261L0.216,-0.261C0.205,-0.261 0.199,-0.255 0.199,-0.244L0.199,-0L0.081,-0L0.081,-0.267C0.081,-0.305 0.089,-0.332 0.106,-0.349C0.123,-0.366 0.15,-0.374 0.187,-0.374L0.45,-0.374C0.467,-0.374 0.481,-0.377 0.493,-0.382C0.505,-0.387 0.515,-0.394 0.522,-0.403C0.529,-0.412 0.535,-0.422 0.539,-0.433C0.542,-0.444 0.544,-0.456 0.544,-0.468C0.544,-0.492 0.537,-0.513 0.522,-0.531C0.506,-0.548 0.483,-0.557 0.45,-0.557L0.08,-0.557L0.08,-0.675L0.446,-0.675Z" style="fill:rgb(255,0,0);fill-rule:nonzero;"/>
            </g>
            <g transform="matrix(241.667,0,0,241.667,371.16,301.342)">
                <path d="M0.42,-0.528C0.483,-0.528 0.528,-0.514 0.556,-0.486C0.584,-0.457 0.598,-0.417 0.598,-0.366C0.598,-0.317 0.584,-0.28 0.557,-0.254C0.53,-0.227 0.484,-0.214 0.419,-0.214L0.168,-0.214L0.168,-0.176C0.168,-0.155 0.174,-0.137 0.187,-0.124C0.199,-0.11 0.22,-0.103 0.249,-0.103L0.572,-0.103L0.572,-0L0.249,-0C0.216,-0 0.188,-0.004 0.165,-0.013C0.141,-0.022 0.123,-0.034 0.108,-0.05C0.093,-0.065 0.082,-0.084 0.075,-0.105C0.068,-0.126 0.065,-0.149 0.065,-0.174L0.065,-0.354C0.065,-0.379 0.068,-0.402 0.075,-0.423C0.082,-0.444 0.093,-0.463 0.108,-0.479C0.123,-0.494 0.141,-0.506 0.165,-0.515C0.188,-0.524 0.216,-0.528 0.249,-0.528L0.42,-0.528ZM0.168,-0.297L0.416,-0.297C0.445,-0.297 0.465,-0.303 0.477,-0.314C0.488,-0.325 0.494,-0.341 0.494,-0.36C0.494,-0.38 0.488,-0.396 0.476,-0.408C0.464,-0.42 0.445,-0.426 0.419,-0.426L0.249,-0.426C0.22,-0.426 0.199,-0.419 0.187,-0.405C0.174,-0.391 0.168,-0.374 0.168,-0.353L0.168,-0.297Z" style="fill:rgb(255,0,0);fill-rule:nonzero;"/>
            </g>
            <g transform="matrix(241.667,0,0,241.667,528.726,301.342)">
                <path d="M0.62,-0.757L0.62,-0.226C0.62,-0.149 0.604,-0.093 0.571,-0.056C0.538,-0.019 0.489,-0 0.426,-0L0.28,-0C0.209,-0 0.154,-0.022 0.113,-0.065C0.072,-0.108 0.051,-0.175 0.051,-0.264C0.051,-0.353 0.072,-0.42 0.113,-0.463C0.154,-0.506 0.209,-0.528 0.28,-0.528L0.513,-0.528L0.513,-0.757L0.62,-0.757ZM0.395,-0.103C0.438,-0.103 0.468,-0.113 0.486,-0.133C0.504,-0.153 0.513,-0.186 0.513,-0.231L0.513,-0.426L0.29,-0.426C0.244,-0.426 0.211,-0.413 0.19,-0.388C0.169,-0.363 0.158,-0.321 0.158,-0.264C0.158,-0.207 0.169,-0.166 0.19,-0.141C0.211,-0.116 0.244,-0.103 0.29,-0.103L0.395,-0.103Z" style="fill:rgb(255,0,0);fill-rule:nonzero;"/>
            </g>
            <g transform="matrix(241.667,0,0,241.667,696.685,301.342)">
                <path d="M0.623,-0.675L0.623,-0.557L0.362,-0.557C0.297,-0.557 0.249,-0.54 0.22,-0.506C0.19,-0.471 0.175,-0.415 0.175,-0.337C0.175,-0.26 0.19,-0.204 0.219,-0.17C0.248,-0.135 0.296,-0.118 0.362,-0.118L0.623,-0.118L0.623,-0L0.362,-0C0.263,-0 0.188,-0.028 0.136,-0.084C0.083,-0.139 0.057,-0.224 0.057,-0.337C0.057,-0.451 0.083,-0.536 0.136,-0.592C0.188,-0.647 0.263,-0.675 0.362,-0.675L0.623,-0.675Z" style="fill-rule:nonzero;"/>
            </g>
            <g transform="matrix(241.667,0,0,241.667,861.501,301.342)">
                <path d="M0.42,-0.528C0.483,-0.528 0.528,-0.514 0.556,-0.486C0.584,-0.457 0.598,-0.417 0.598,-0.366C0.598,-0.317 0.584,-0.28 0.557,-0.254C0.53,-0.227 0.484,-0.214 0.419,-0.214L0.168,-0.214L0.168,-0.176C0.168,-0.155 0.174,-0.137 0.187,-0.124C0.199,-0.11 0.22,-0.103 0.249,-0.103L0.572,-0.103L0.572,-0L0.249,-0C0.216,-0 0.188,-0.004 0.165,-0.013C0.141,-0.022 0.123,-0.034 0.108,-0.05C0.093,-0.065 0.082,-0.084 0.075,-0.105C0.068,-0.126 0.065,-0.149 0.065,-0.174L0.065,-0.354C0.065,-0.379 0.068,-0.402 0.075,-0.423C0.082,-0.444 0.093,-0.463 0.108,-0.479C0.123,-0.494 0.141,-0.506 0.165,-0.515C0.188,-0.524 0.216,-0.528 0.249,-0.528L0.42,-0.528ZM0.168,-0.297L0.416,-0.297C0.445,-0.297 0.465,-0.303 0.477,-0.314C0.488,-0.325 0.494,-0.341 0.494,-0.36C0.494,-0.38 0.488,-0.396 0.476,-0.408C0.464,-0.42 0.445,-0.426 0.419,-0.426L0.249,-0.426C0.22,-0.426 0.199,-0.419 0.187,-0.405C0.174,-0.391 0.168,-0.374 0.168,-0.353L0.168,-0.297Z" style="fill-rule:nonzero;"/>
            </g>
            <g transform="matrix(241.667,0,0,241.667,1019.07,301.342)">
                <path d="M0.368,-0.528C0.458,-0.528 0.525,-0.508 0.569,-0.468C0.612,-0.427 0.634,-0.37 0.634,-0.297L0.634,-0L0.527,-0L0.527,-0.297C0.527,-0.339 0.515,-0.371 0.49,-0.393C0.464,-0.415 0.424,-0.426 0.368,-0.426L0.195,-0.426C0.186,-0.426 0.182,-0.421 0.182,-0.411L0.182,-0L0.076,-0L0.076,-0.446C0.076,-0.477 0.082,-0.499 0.093,-0.511C0.104,-0.522 0.123,-0.528 0.15,-0.528L0.368,-0.528Z" style="fill-rule:nonzero;"/>
            </g>
            <g transform="matrix(241.667,0,0,241.667,1189.93,301.342)">
                <path d="M0.095,-0.528L0.095,-0.653L0.202,-0.653L0.202,-0.528L0.348,-0.528L0.348,-0.426L0.202,-0.426L0.202,-0.176C0.202,-0.146 0.208,-0.125 0.219,-0.114C0.23,-0.103 0.248,-0.097 0.273,-0.097L0.346,-0.097L0.346,-0L0.251,-0C0.224,-0 0.2,-0.003 0.181,-0.009C0.161,-0.015 0.145,-0.025 0.132,-0.039C0.119,-0.053 0.11,-0.072 0.104,-0.095C0.098,-0.118 0.095,-0.147 0.095,-0.182L0.095,-0.426L0.023,-0.426L0.023,-0.528L0.095,-0.528Z" style="fill-rule:nonzero;"/>
            </g>
            <g transform="matrix(241.667,0,0,241.667,1280.55,301.342)">
                <path d="M0.435,-0.528L0.435,-0.426L0.249,-0.426C0.204,-0.426 0.181,-0.403 0.181,-0.358L0.181,-0L0.075,-0L0.075,-0.374C0.075,-0.427 0.086,-0.466 0.108,-0.491C0.129,-0.516 0.166,-0.528 0.218,-0.528L0.435,-0.528Z" style="fill-rule:nonzero;"/>
            </g>
            <g transform="matrix(241.667,0,0,241.667,1392.44,301.342)">
                <path d="M0.414,-0.528C0.447,-0.528 0.475,-0.524 0.498,-0.515C0.521,-0.506 0.541,-0.494 0.556,-0.479C0.571,-0.463 0.581,-0.444 0.588,-0.423C0.595,-0.402 0.598,-0.379 0.598,-0.354L0.598,-0.106C0.598,-0.087 0.596,-0.07 0.594,-0.057C0.591,-0.044 0.585,-0.033 0.577,-0.025C0.569,-0.016 0.558,-0.01 0.544,-0.006C0.529,-0.002 0.511,-0 0.489,-0L0.242,-0C0.179,-0 0.134,-0.014 0.107,-0.043C0.079,-0.072 0.065,-0.111 0.065,-0.161C0.065,-0.185 0.068,-0.206 0.075,-0.225C0.081,-0.244 0.091,-0.26 0.105,-0.273C0.119,-0.286 0.137,-0.296 0.16,-0.303C0.183,-0.31 0.21,-0.313 0.243,-0.313L0.494,-0.313L0.494,-0.353C0.494,-0.374 0.488,-0.391 0.476,-0.405C0.463,-0.419 0.442,-0.426 0.413,-0.426L0.097,-0.426L0.097,-0.528L0.414,-0.528ZM0.465,-0.103C0.484,-0.103 0.494,-0.112 0.494,-0.13L0.494,-0.229L0.245,-0.229C0.217,-0.229 0.197,-0.224 0.186,-0.213C0.175,-0.202 0.169,-0.186 0.169,-0.167C0.169,-0.148 0.175,-0.132 0.186,-0.121C0.197,-0.109 0.216,-0.103 0.243,-0.103L0.465,-0.103Z" style="fill-rule:nonzero;"/>
            </g>
            <g transform="matrix(241.667,0,0,241.667,1554.84,301.342)">
                <rect x="0.076" y="-0.757" width="0.106" height="0.757" style="fill-rule:nonzero;"/>
            </g>
        </g>
    </g>
</svg>
